<?xml version="1.0" standalone="no"?>
 <!DOCTYPE svg PUBLIC "-//W3C//DTD SVG 1.1//EN" 
 "http://www.w3.org/Graphics/SVG/1.1/DTD/svg11.dtd"> 
<svg
  xmlns:svg="http://www.w3.org/2000/svg"
  xmlns="http://www.w3.org/2000/svg"
  xmlns:xlink="http://www.w3.org/1999/xlink"
  version="1.1"
  width="33.0962mm" height="29.0068mm" viewBox="0.0000 0.0000 33.0962 29.0068">
<title>SVG Image created as ds28e07q.svg date 2026/01/16 16:13:29 </title>
  <desc>Image generated by Eeschema-SVG </desc>
<g style="fill:#000000; fill-opacity:1.0000;stroke:#000000; stroke-opacity:1.0000;
stroke-linecap:round; stroke-linejoin:round;"
 transform="translate(0 0) scale(1 1)">
</g>
<g style="fill:#FFFFC2; fill-opacity:1.0000; stroke:none;">
<rect x="2.883800" y="4.710800" width="15.240000" height="10.160000" rx="0.000000" />
</g>
<g style="fill:none; 
stroke:#840000; stroke-width:0.2540; stroke-opacity:1; 
stroke-linecap:round; stroke-linejoin:round;">
<rect x="2.883800" y="4.710800" width="15.240000" height="10.160000" rx="0.000000" />
</g>
<g style="fill:none; 
stroke:#840000; stroke-width:0.1524; stroke-opacity:1; 
stroke-linecap:round; stroke-linejoin:round;">
<path d="M18.1238 9.7908
L20.6638 9.7908
" />
</g>
<g style="fill:none; 
stroke:#006464; stroke-width:0.1524; stroke-opacity:1; 
stroke-linecap:round; stroke-linejoin:round;">
<text x="17.6158" y="10.4258"
textLength="2.1385" font-size="1.6933" lengthAdjust="spacingAndGlyphs"
text-anchor="end" opacity="0">IO</text>
<g class="stroked-text"><desc>IO</desc>
<path d="M15.8826 10.3703
L15.8826 9.1003
" />
<path d="M16.7293 9.1003
L16.9712 9.1003
" />
<path d="M16.9712 9.1003
L17.0922 9.1608
" />
<path d="M17.0922 9.1608
L17.2131 9.2818
" />
<path d="M17.2131 9.2818
L17.2736 9.5237
" />
<path d="M17.2736 9.5237
L17.2736 9.9470
" />
<path d="M17.2736 9.9470
L17.2131 10.1889
" />
<path d="M17.2131 10.1889
L17.0922 10.3099
" />
<path d="M17.0922 10.3099
L16.9712 10.3703
" />
<path d="M16.9712 10.3703
L16.7293 10.3703
" />
<path d="M16.7293 10.3703
L16.6084 10.3099
" />
<path d="M16.6084 10.3099
L16.4874 10.1889
" />
<path d="M16.4874 10.1889
L16.4270 9.9470
" />
<path d="M16.4270 9.9470
L16.4270 9.5237
" />
<path d="M16.4270 9.5237
L16.4874 9.2818
" />
<path d="M16.4874 9.2818
L16.6084 9.1608
" />
<path d="M16.6084 9.1608
L16.7293 9.1003
" />
</g></g>
<g style="fill:none; 
stroke:#A90000; stroke-width:0.1524; stroke-opacity:1; 
stroke-linecap:round; stroke-linejoin:round;">
<text x="19.3938" y="9.5368"
textLength="1.4127" font-size="1.6933" lengthAdjust="spacingAndGlyphs"
text-anchor="middle" opacity="0">2</text>
<g class="stroked-text"><desc>2</desc>
<path d="M19.0310 8.2243
L19.0914 8.1638
" />
<path d="M19.0914 8.1638
L19.2124 8.1033
" />
<path d="M19.2124 8.1033
L19.5148 8.1033
" />
<path d="M19.5148 8.1033
L19.6357 8.1638
" />
<path d="M19.6357 8.1638
L19.6962 8.2243
" />
<path d="M19.6962 8.2243
L19.7567 8.3452
" />
<path d="M19.7567 8.3452
L19.7567 8.4662
" />
<path d="M19.7567 8.4662
L19.6962 8.6476
" />
<path d="M19.6962 8.6476
L18.9705 9.3733
" />
<path d="M18.9705 9.3733
L19.7567 9.3733
" />
</g></g>
<g style="fill:none; 
stroke:#840000; stroke-width:0.1524; stroke-opacity:1; 
stroke-linecap:round; stroke-linejoin:round;">
<path d="M10.5038 14.8708
L10.5038 17.4108
" />
</g>
<g style="fill:none; 
stroke:#006464; stroke-width:0.1524; stroke-opacity:1; 
stroke-linecap:round; stroke-linejoin:round;">
<g transform="rotate(-90.000000 10.5038 14.3628)">
<text x="10.5038" y="14.9978"
textLength="4.0737" font-size="1.6933" lengthAdjust="spacingAndGlyphs"
text-anchor="start" opacity="0">GND</text>
</g>
<g class="stroked-text"><desc>GND</desc>
<path d="M9.8738 13.2949
L9.8133 13.4159
" />
<path d="M9.8133 13.4159
L9.8133 13.5973
" />
<path d="M9.8133 13.5973
L9.8738 13.7787
" />
<path d="M9.8738 13.7787
L9.9948 13.8997
" />
<path d="M9.9948 13.8997
L10.1157 13.9602
" />
<path d="M10.1157 13.9602
L10.3576 14.0206
" />
<path d="M10.3576 14.0206
L10.5390 14.0206
" />
<path d="M10.5390 14.0206
L10.7809 13.9602
" />
<path d="M10.7809 13.9602
L10.9019 13.8997
" />
<path d="M10.9019 13.8997
L11.0229 13.7787
" />
<path d="M11.0229 13.7787
L11.0833 13.5973
" />
<path d="M11.0833 13.5973
L11.0833 13.4764
" />
<path d="M11.0833 13.4764
L11.0229 13.2949
" />
<path d="M11.0229 13.2949
L10.9624 13.2345
" />
<path d="M10.9624 13.2345
L10.5390 13.2345
" />
<path d="M10.5390 13.2345
L10.5390 13.4764
" />
<path d="M11.0833 12.6902
L9.8133 12.6902
" />
<path d="M9.8133 12.6902
L11.0833 11.9645
" />
<path d="M11.0833 11.9645
L9.8133 11.9645
" />
<path d="M11.0833 11.3597
L9.8133 11.3597
" />
<path d="M9.8133 11.3597
L9.8133 11.0573
" />
<path d="M9.8133 11.0573
L9.8738 10.8759
" />
<path d="M9.8738 10.8759
L9.9948 10.7549
" />
<path d="M9.9948 10.7549
L10.1157 10.6944
" />
<path d="M10.1157 10.6944
L10.3576 10.6340
" />
<path d="M10.3576 10.6340
L10.5390 10.6340
" />
<path d="M10.5390 10.6340
L10.7809 10.6944
" />
<path d="M10.7809 10.6944
L10.9019 10.7549
" />
<path d="M10.9019 10.7549
L11.0229 10.8759
" />
<path d="M11.0229 10.8759
L11.0833 11.0573
" />
<path d="M11.0833 11.0573
L11.0833 11.3597
" />
</g></g>
<g style="fill:none; 
stroke:#A90000; stroke-width:0.1524; stroke-opacity:1; 
stroke-linecap:round; stroke-linejoin:round;">
<g transform="rotate(-90.000000 10.2498 16.1408)">
<text x="10.2498" y="16.1408"
textLength="1.4127" font-size="1.6933" lengthAdjust="spacingAndGlyphs"
text-anchor="middle" opacity="0">3</text>
</g>
<g class="stroked-text"><desc>3</desc>
<path d="M8.8163 16.5640
L8.8163 15.7778
" />
<path d="M8.8163 15.7778
L9.3001 16.2012
" />
<path d="M9.3001 16.2012
L9.3001 16.0197
" />
<path d="M9.3001 16.0197
L9.3606 15.8988
" />
<path d="M9.3606 15.8988
L9.4211 15.8383
" />
<path d="M9.4211 15.8383
L9.5420 15.7778
" />
<path d="M9.5420 15.7778
L9.8444 15.7778
" />
<path d="M9.8444 15.7778
L9.9654 15.8383
" />
<path d="M9.9654 15.8383
L10.0259 15.8988
" />
<path d="M10.0259 15.8988
L10.0863 16.0197
" />
<path d="M10.0863 16.0197
L10.0863 16.3826
" />
<path d="M10.0863 16.3826
L10.0259 16.5035
" />
<path d="M10.0259 16.5035
L9.9654 16.5640
" />
</g></g>
<g style="fill:none; 
stroke:#006464; stroke-width:0.1588; stroke-opacity:1; 
stroke-linecap:round; stroke-linejoin:round;">
<text x="4.1538" y="4.0759"
textLength="2.6415" font-size="1.6933" lengthAdjust="spacingAndGlyphs"
text-anchor="middle" opacity="0">U?</text>
<g class="stroked-text"><desc>U?</desc>
<path d="M3.2466 2.7501
L3.2466 3.7782
" />
<path d="M3.2466 3.7782
L3.3071 3.8992
" />
<path d="M3.3071 3.8992
L3.3676 3.9597
" />
<path d="M3.3676 3.9597
L3.4885 4.0201
" />
<path d="M3.4885 4.0201
L3.7304 4.0201
" />
<path d="M3.7304 4.0201
L3.8514 3.9597
" />
<path d="M3.8514 3.9597
L3.9119 3.8992
" />
<path d="M3.9119 3.8992
L3.9723 3.7782
" />
<path d="M3.9723 3.7782
L3.9723 2.7501
" />
<path d="M4.7586 3.8992
L4.8190 3.9597
" />
<path d="M4.8190 3.9597
L4.7586 4.0201
" />
<path d="M4.7586 4.0201
L4.6981 3.9597
" />
<path d="M4.6981 3.9597
L4.7586 3.8992
" />
<path d="M4.7586 3.8992
L4.7586 4.0201
" />
<path d="M4.5167 2.8106
L4.6376 2.7501
" />
<path d="M4.6376 2.7501
L4.9400 2.7501
" />
<path d="M4.9400 2.7501
L5.0609 2.8106
" />
<path d="M5.0609 2.8106
L5.1214 2.9316
" />
<path d="M5.1214 2.9316
L5.1214 3.0525
" />
<path d="M5.1214 3.0525
L5.0609 3.1735
" />
<path d="M5.0609 3.1735
L5.0005 3.2339
" />
<path d="M5.0005 3.2339
L4.8795 3.2944
" />
<path d="M4.8795 3.2944
L4.8190 3.3549
" />
<path d="M4.8190 3.3549
L4.7586 3.4758
" />
<path d="M4.7586 3.4758
L4.7586 3.5363
" />
</g><text x="18.1238" y="4.0759"
textLength="10.0194" font-size="1.6933" lengthAdjust="spacingAndGlyphs"
text-anchor="middle" opacity="0">DS28E07Q</text>
<g class="stroked-text"><desc>DS28E07Q</desc>
<path d="M13.5276 4.0201
L13.5276 2.7501
" />
<path d="M13.5276 2.7501
L13.8300 2.7501
" />
<path d="M13.8300 2.7501
L14.0114 2.8106
" />
<path d="M14.0114 2.8106
L14.1324 2.9316
" />
<path d="M14.1324 2.9316
L14.1929 3.0525
" />
<path d="M14.1929 3.0525
L14.2533 3.2944
" />
<path d="M14.2533 3.2944
L14.2533 3.4758
" />
<path d="M14.2533 3.4758
L14.1929 3.7177
" />
<path d="M14.1929 3.7177
L14.1324 3.8387
" />
<path d="M14.1324 3.8387
L14.0114 3.9597
" />
<path d="M14.0114 3.9597
L13.8300 4.0201
" />
<path d="M13.8300 4.0201
L13.5276 4.0201
" />
<path d="M14.7372 3.9597
L14.9186 4.0201
" />
<path d="M14.9186 4.0201
L15.2210 4.0201
" />
<path d="M15.2210 4.0201
L15.3419 3.9597
" />
<path d="M15.3419 3.9597
L15.4024 3.8992
" />
<path d="M15.4024 3.8992
L15.4629 3.7782
" />
<path d="M15.4629 3.7782
L15.4629 3.6573
" />
<path d="M15.4629 3.6573
L15.4024 3.5363
" />
<path d="M15.4024 3.5363
L15.3419 3.4758
" />
<path d="M15.3419 3.4758
L15.2210 3.4154
" />
<path d="M15.2210 3.4154
L14.9791 3.3549
" />
<path d="M14.9791 3.3549
L14.8581 3.2944
" />
<path d="M14.8581 3.2944
L14.7976 3.2339
" />
<path d="M14.7976 3.2339
L14.7372 3.1130
" />
<path d="M14.7372 3.1130
L14.7372 2.9920
" />
<path d="M14.7372 2.9920
L14.7976 2.8711
" />
<path d="M14.7976 2.8711
L14.8581 2.8106
" />
<path d="M14.8581 2.8106
L14.9791 2.7501
" />
<path d="M14.9791 2.7501
L15.2814 2.7501
" />
<path d="M15.2814 2.7501
L15.4629 2.8106
" />
<path d="M15.9467 2.8711
L16.0071 2.8106
" />
<path d="M16.0071 2.8106
L16.1281 2.7501
" />
<path d="M16.1281 2.7501
L16.4305 2.7501
" />
<path d="M16.4305 2.7501
L16.5514 2.8106
" />
<path d="M16.5514 2.8106
L16.6119 2.8711
" />
<path d="M16.6119 2.8711
L16.6724 2.9920
" />
<path d="M16.6724 2.9920
L16.6724 3.1130
" />
<path d="M16.6724 3.1130
L16.6119 3.2944
" />
<path d="M16.6119 3.2944
L15.8862 4.0201
" />
<path d="M15.8862 4.0201
L16.6724 4.0201
" />
<path d="M17.3981 3.2944
L17.2771 3.2339
" />
<path d="M17.2771 3.2339
L17.2166 3.1735
" />
<path d="M17.2166 3.1735
L17.1562 3.0525
" />
<path d="M17.1562 3.0525
L17.1562 2.9920
" />
<path d="M17.1562 2.9920
L17.2166 2.8711
" />
<path d="M17.2166 2.8711
L17.2771 2.8106
" />
<path d="M17.2771 2.8106
L17.3981 2.7501
" />
<path d="M17.3981 2.7501
L17.6400 2.7501
" />
<path d="M17.6400 2.7501
L17.7609 2.8106
" />
<path d="M17.7609 2.8106
L17.8214 2.8711
" />
<path d="M17.8214 2.8711
L17.8819 2.9920
" />
<path d="M17.8819 2.9920
L17.8819 3.0525
" />
<path d="M17.8819 3.0525
L17.8214 3.1735
" />
<path d="M17.8214 3.1735
L17.7609 3.2339
" />
<path d="M17.7609 3.2339
L17.6400 3.2944
" />
<path d="M17.6400 3.2944
L17.3981 3.2944
" />
<path d="M17.3981 3.2944
L17.2771 3.3549
" />
<path d="M17.2771 3.3549
L17.2166 3.4154
" />
<path d="M17.2166 3.4154
L17.1562 3.5363
" />
<path d="M17.1562 3.5363
L17.1562 3.7782
" />
<path d="M17.1562 3.7782
L17.2166 3.8992
" />
<path d="M17.2166 3.8992
L17.2771 3.9597
" />
<path d="M17.2771 3.9597
L17.3981 4.0201
" />
<path d="M17.3981 4.0201
L17.6400 4.0201
" />
<path d="M17.6400 4.0201
L17.7609 3.9597
" />
<path d="M17.7609 3.9597
L17.8214 3.8992
" />
<path d="M17.8214 3.8992
L17.8819 3.7782
" />
<path d="M17.8819 3.7782
L17.8819 3.5363
" />
<path d="M17.8819 3.5363
L17.8214 3.4154
" />
<path d="M17.8214 3.4154
L17.7609 3.3549
" />
<path d="M17.7609 3.3549
L17.6400 3.2944
" />
<path d="M18.4261 3.3549
L18.8495 3.3549
" />
<path d="M19.0309 4.0201
L18.4261 4.0201
" />
<path d="M18.4261 4.0201
L18.4261 2.7501
" />
<path d="M18.4261 2.7501
L19.0309 2.7501
" />
<path d="M19.8170 2.7501
L19.9380 2.7501
" />
<path d="M19.9380 2.7501
L20.0589 2.8106
" />
<path d="M20.0589 2.8106
L20.1194 2.8711
" />
<path d="M20.1194 2.8711
L20.1799 2.9920
" />
<path d="M20.1799 2.9920
L20.2404 3.2339
" />
<path d="M20.2404 3.2339
L20.2404 3.5363
" />
<path d="M20.2404 3.5363
L20.1799 3.7782
" />
<path d="M20.1799 3.7782
L20.1194 3.8992
" />
<path d="M20.1194 3.8992
L20.0589 3.9597
" />
<path d="M20.0589 3.9597
L19.9380 4.0201
" />
<path d="M19.9380 4.0201
L19.8170 4.0201
" />
<path d="M19.8170 4.0201
L19.6961 3.9597
" />
<path d="M19.6961 3.9597
L19.6356 3.8992
" />
<path d="M19.6356 3.8992
L19.5751 3.7782
" />
<path d="M19.5751 3.7782
L19.5147 3.5363
" />
<path d="M19.5147 3.5363
L19.5147 3.2339
" />
<path d="M19.5147 3.2339
L19.5751 2.9920
" />
<path d="M19.5751 2.9920
L19.6356 2.8711
" />
<path d="M19.6356 2.8711
L19.6961 2.8106
" />
<path d="M19.6961 2.8106
L19.8170 2.7501
" />
<path d="M20.6637 2.7501
L21.5103 2.7501
" />
<path d="M21.5103 2.7501
L20.9661 4.0201
" />
<path d="M22.8408 4.1411
L22.7198 4.0806
" />
<path d="M22.7198 4.0806
L22.5989 3.9597
" />
<path d="M22.5989 3.9597
L22.4175 3.7782
" />
<path d="M22.4175 3.7782
L22.2965 3.7177
" />
<path d="M22.2965 3.7177
L22.1756 3.7177
" />
<path d="M22.2360 4.0201
L22.1151 3.9597
" />
<path d="M22.1151 3.9597
L21.9941 3.8387
" />
<path d="M21.9941 3.8387
L21.9337 3.5968
" />
<path d="M21.9337 3.5968
L21.9337 3.1735
" />
<path d="M21.9337 3.1735
L21.9941 2.9316
" />
<path d="M21.9941 2.9316
L22.1151 2.8106
" />
<path d="M22.1151 2.8106
L22.2360 2.7501
" />
<path d="M22.2360 2.7501
L22.4779 2.7501
" />
<path d="M22.4779 2.7501
L22.5989 2.8106
" />
<path d="M22.5989 2.8106
L22.7198 2.9316
" />
<path d="M22.7198 2.9316
L22.7803 3.1735
" />
<path d="M22.7803 3.1735
L22.7803 3.5968
" />
<path d="M22.7803 3.5968
L22.7198 3.8387
" />
<path d="M22.7198 3.8387
L22.5989 3.9597
" />
<path d="M22.5989 3.9597
L22.4779 4.0201
" />
<path d="M22.4779 4.0201
L22.2360 4.0201
" />
</g></g> 
</svg>
