<?xml version="1.0" standalone="no"?>
 <!DOCTYPE svg PUBLIC "-//W3C//DTD SVG 1.1//EN" 
 "http://www.w3.org/Graphics/SVG/1.1/DTD/svg11.dtd"> 
<svg
  xmlns:svg="http://www.w3.org/2000/svg"
  xmlns="http://www.w3.org/2000/svg"
  xmlns:xlink="http://www.w3.org/1999/xlink"
  version="1.1"
  width="28.5750mm" height="26.5938mm" viewBox="0.0000 0.0000 28.5750 26.5938">
<title>SVG Image created as irl6283m.svg date 2026/01/16 16:17:01 </title>
  <desc>Image generated by Eeschema-SVG </desc>
<g style="fill:#000000; fill-opacity:1.0000;stroke:#000000; stroke-opacity:1.0000;
stroke-linecap:round; stroke-linejoin:round;"
 transform="translate(0 0) scale(1 1)">
<path style="fill:none; 
stroke:#840000; stroke-width:0.1524; stroke-opacity:1; 
stroke-linecap:round; stroke-linejoin:round;fill:none"
d="M 11.9506,13.2969
9.1566,13.2969
" /> 
<path style="fill:none; 
stroke:#840000; stroke-width:0.2540; stroke-opacity:1; 
stroke-linecap:round; stroke-linejoin:round;fill:none"
d="M 11.9506,11.3919
11.9506,15.2019
" /> 
<path style="fill:none; 
stroke:#840000; stroke-width:0.2540; stroke-opacity:1; 
stroke-linecap:round; stroke-linejoin:round;fill:none"
d="M 12.4586,14.5669
12.4586,15.5829
" /> 
<path style="fill:none; 
stroke:#840000; stroke-width:0.2540; stroke-opacity:1; 
stroke-linecap:round; stroke-linejoin:round;fill:none"
d="M 12.4586,12.7889
12.4586,13.8049
" /> 
<path style="fill:none; 
stroke:#840000; stroke-width:0.2540; stroke-opacity:1; 
stroke-linecap:round; stroke-linejoin:round;fill:none"
d="M 12.4586,11.0109
12.4586,12.0269
" /> 
<path style="fill:none; 
stroke:#840000; stroke-width:0.1524; stroke-opacity:1; 
stroke-linecap:round; stroke-linejoin:round;fill:none"
d="M 14.2366,10.7569
14.2366,11.5189
" /> 
<path style="fill:none; 
stroke:#840000; stroke-width:0.1524; stroke-opacity:1; 
stroke-linecap:round; stroke-linejoin:round;fill:none"
d="M 14.2366,15.8369
14.2366,13.2969
12.4586,13.2969
" /> 
<path style="fill:none; 
stroke:#840000; stroke-width:0.1524; stroke-opacity:1; 
stroke-linecap:round; stroke-linejoin:round;fill:none"
d="M 12.4586,15.0749
14.9986,15.0749
14.9986,11.5189
12.4586,11.5189
" /> 
<path style="fill:#840000; fill-opacity:1.0000; 
stroke:#840000; stroke-width:0.1524; stroke-opacity:1; 
stroke-linecap:round; stroke-linejoin:round;fill-rule:evenodd;"
d="M 12.7126,13.2969
13.7286,12.9159
13.7286,13.6779
Z" /> 
<path style="fill:none; 
stroke:#840000; stroke-width:0.1524; stroke-opacity:1; 
stroke-linecap:round; stroke-linejoin:round;fill:none"
d="M 14.4906,12.7889
14.6176,12.9159
15.3796,12.9159
15.5066,13.0429
" /> 
<path style="fill:none; 
stroke:#840000; stroke-width:0.1524; stroke-opacity:1; 
stroke-linecap:round; stroke-linejoin:round;fill:none"
d="M 14.9986,12.9159
14.6176,13.5509
15.3796,13.5509
Z" /> 
</g>
<g style="fill:none; 
stroke:#840000; stroke-width:0.2540; stroke-opacity:1; 
stroke-linecap:round; stroke-linejoin:round;">
<circle cx="13.3476" cy="13.2969" r="2.7940" /> 
</g>
<g style="fill:#840000; fill-opacity:1.0000; 
stroke:#840000; stroke-width:0.1524; stroke-opacity:1; 
stroke-linecap:round; stroke-linejoin:round;">
<circle cx="14.2366" cy="15.0749" r="0.2540" /> 
<circle cx="14.2366" cy="11.5189" r="0.2540" /> 
</g>
<g style="fill:none; 
stroke:#840000; stroke-width:0.1524; stroke-opacity:1; 
stroke-linecap:round; stroke-linejoin:round;">
<path d="M14.2366 10.7569
L14.2366 8.2169
" />
</g>
<g style="fill:none; 
stroke:#A90000; stroke-width:0.1524; stroke-opacity:1; 
stroke-linecap:round; stroke-linejoin:round;">
<g transform="rotate(-90.000000 13.9826 9.4869)">
<text x="13.9826" y="9.4869"
textLength="1.4127" font-size="1.6933" lengthAdjust="spacingAndGlyphs"
text-anchor="middle" opacity="0">1</text>
</g>
<g class="stroked-text"><desc>1</desc>
<path d="M13.8191 9.1239
L13.8191 9.8496
" />
<path d="M13.8191 9.4868
L12.5491 9.4868
" />
<path d="M12.5491 9.4868
L12.7306 9.6077
" />
<path d="M12.7306 9.6077
L12.8515 9.7287
" />
<path d="M12.8515 9.7287
L12.9120 9.8496
" />
</g></g>
<g style="fill:none; 
stroke:#840000; stroke-width:0.1524; stroke-opacity:1; 
stroke-linecap:round; stroke-linejoin:round;">
<path d="M9.1566 13.2969
L6.6166 13.2969
" />
</g>
<g style="fill:none; 
stroke:#A90000; stroke-width:0.1524; stroke-opacity:1; 
stroke-linecap:round; stroke-linejoin:round;">
<text x="7.8866" y="13.0429"
textLength="1.4127" font-size="1.6933" lengthAdjust="spacingAndGlyphs"
text-anchor="middle" opacity="0">2</text>
<g class="stroked-text"><desc>2</desc>
<path d="M7.5238 11.7304
L7.5842 11.6699
" />
<path d="M7.5842 11.6699
L7.7052 11.6094
" />
<path d="M7.7052 11.6094
L8.0076 11.6094
" />
<path d="M8.0076 11.6094
L8.1285 11.6699
" />
<path d="M8.1285 11.6699
L8.1890 11.7304
" />
<path d="M8.1890 11.7304
L8.2495 11.8513
" />
<path d="M8.2495 11.8513
L8.2495 11.9723
" />
<path d="M8.2495 11.9723
L8.1890 12.1537
" />
<path d="M8.1890 12.1537
L7.4633 12.8794
" />
<path d="M7.4633 12.8794
L8.2495 12.8794
" />
</g></g>
<g style="fill:none; 
stroke:#840000; stroke-width:0.1524; stroke-opacity:1; 
stroke-linecap:round; stroke-linejoin:round;">
<path d="M14.2366 15.8369
L14.2366 18.3769
" />
</g>
<g style="fill:none; 
stroke:#A90000; stroke-width:0.1524; stroke-opacity:1; 
stroke-linecap:round; stroke-linejoin:round;">
<g transform="rotate(-90.000000 13.9826 17.1069)">
<text x="13.9826" y="17.1069"
textLength="1.4127" font-size="1.6933" lengthAdjust="spacingAndGlyphs"
text-anchor="middle" opacity="0">3</text>
</g>
<g class="stroked-text"><desc>3</desc>
<path d="M12.5491 17.5301
L12.5491 16.7439
" />
<path d="M12.5491 16.7439
L13.0329 17.1673
" />
<path d="M13.0329 17.1673
L13.0329 16.9858
" />
<path d="M13.0329 16.9858
L13.0934 16.8649
" />
<path d="M13.0934 16.8649
L13.1539 16.8044
" />
<path d="M13.1539 16.8044
L13.2748 16.7439
" />
<path d="M13.2748 16.7439
L13.5772 16.7439
" />
<path d="M13.5772 16.7439
L13.6982 16.8044
" />
<path d="M13.6982 16.8044
L13.7587 16.8649
" />
<path d="M13.7587 16.8649
L13.8191 16.9858
" />
<path d="M13.8191 16.9858
L13.8191 17.3487
" />
<path d="M13.8191 17.3487
L13.7587 17.4696
" />
<path d="M13.7587 17.4696
L13.6982 17.5301
" />
</g></g>
<g style="fill:none; 
stroke:#006464; stroke-width:0.1588; stroke-opacity:1; 
stroke-linecap:round; stroke-linejoin:round;">
<text x="18.0973" y="12.0270"
textLength="2.6415" font-size="1.6933" lengthAdjust="spacingAndGlyphs"
text-anchor="middle" opacity="0">Q?</text>
<g class="stroked-text"><desc>Q?</desc>
<path d="M18.0368 12.0922
L17.9158 12.0317
" />
<path d="M17.9158 12.0317
L17.7949 11.9108
" />
<path d="M17.7949 11.9108
L17.6135 11.7293
" />
<path d="M17.6135 11.7293
L17.4925 11.6688
" />
<path d="M17.4925 11.6688
L17.3716 11.6688
" />
<path d="M17.4320 11.9712
L17.3111 11.9108
" />
<path d="M17.3111 11.9108
L17.1901 11.7898
" />
<path d="M17.1901 11.7898
L17.1297 11.5479
" />
<path d="M17.1297 11.5479
L17.1297 11.1246
" />
<path d="M17.1297 11.1246
L17.1901 10.8827
" />
<path d="M17.1901 10.8827
L17.3111 10.7617
" />
<path d="M17.3111 10.7617
L17.4320 10.7012
" />
<path d="M17.4320 10.7012
L17.6739 10.7012
" />
<path d="M17.6739 10.7012
L17.7949 10.7617
" />
<path d="M17.7949 10.7617
L17.9158 10.8827
" />
<path d="M17.9158 10.8827
L17.9763 11.1246
" />
<path d="M17.9763 11.1246
L17.9763 11.5479
" />
<path d="M17.9763 11.5479
L17.9158 11.7898
" />
<path d="M17.9158 11.7898
L17.7949 11.9108
" />
<path d="M17.7949 11.9108
L17.6739 11.9712
" />
<path d="M17.6739 11.9712
L17.4320 11.9712
" />
<path d="M18.7021 11.8503
L18.7625 11.9108
" />
<path d="M18.7625 11.9108
L18.7021 11.9712
" />
<path d="M18.7021 11.9712
L18.6416 11.9108
" />
<path d="M18.6416 11.9108
L18.7021 11.8503
" />
<path d="M18.7021 11.8503
L18.7021 11.9712
" />
<path d="M18.4602 10.7617
L18.5811 10.7012
" />
<path d="M18.5811 10.7012
L18.8835 10.7012
" />
<path d="M18.8835 10.7012
L19.0044 10.7617
" />
<path d="M19.0044 10.7617
L19.0649 10.8827
" />
<path d="M19.0649 10.8827
L19.0649 11.0036
" />
<path d="M19.0649 11.0036
L19.0044 11.1246
" />
<path d="M19.0044 11.1246
L18.9440 11.1850
" />
<path d="M18.9440 11.1850
L18.8230 11.2455
" />
<path d="M18.8230 11.2455
L18.7625 11.3060
" />
<path d="M18.7625 11.3060
L18.7021 11.4269
" />
<path d="M18.7021 11.4269
L18.7021 11.4874
" />
</g><text x="21.4839" y="13.9320"
textLength="9.4147" font-size="1.6933" lengthAdjust="spacingAndGlyphs"
text-anchor="middle" opacity="0">IRL6283M</text>
<g class="stroked-text"><desc>IRL6283M</desc>
<path d="M17.1901 13.8762
L17.1901 12.6062
" />
<path d="M18.5206 13.8762
L18.0973 13.2715
" />
<path d="M17.7949 13.8762
L17.7949 12.6062
" />
<path d="M17.7949 12.6062
L18.2787 12.6062
" />
<path d="M18.2787 12.6062
L18.3997 12.6667
" />
<path d="M18.3997 12.6667
L18.4602 12.7272
" />
<path d="M18.4602 12.7272
L18.5206 12.8481
" />
<path d="M18.5206 12.8481
L18.5206 13.0296
" />
<path d="M18.5206 13.0296
L18.4602 13.1505
" />
<path d="M18.4602 13.1505
L18.3997 13.2110
" />
<path d="M18.3997 13.2110
L18.2787 13.2715
" />
<path d="M18.2787 13.2715
L17.7949 13.2715
" />
<path d="M19.6697 13.8762
L19.0649 13.8762
" />
<path d="M19.0649 13.8762
L19.0649 12.6062
" />
<path d="M20.6373 12.6062
L20.3954 12.6062
" />
<path d="M20.3954 12.6062
L20.2745 12.6667
" />
<path d="M20.2745 12.6667
L20.2140 12.7272
" />
<path d="M20.2140 12.7272
L20.0930 12.9086
" />
<path d="M20.0930 12.9086
L20.0326 13.1505
" />
<path d="M20.0326 13.1505
L20.0326 13.6343
" />
<path d="M20.0326 13.6343
L20.0930 13.7553
" />
<path d="M20.0930 13.7553
L20.1535 13.8158
" />
<path d="M20.1535 13.8158
L20.2745 13.8762
" />
<path d="M20.2745 13.8762
L20.5164 13.8762
" />
<path d="M20.5164 13.8762
L20.6373 13.8158
" />
<path d="M20.6373 13.8158
L20.6978 13.7553
" />
<path d="M20.6978 13.7553
L20.7583 13.6343
" />
<path d="M20.7583 13.6343
L20.7583 13.3319
" />
<path d="M20.7583 13.3319
L20.6978 13.2110
" />
<path d="M20.6978 13.2110
L20.6373 13.1505
" />
<path d="M20.6373 13.1505
L20.5164 13.0900
" />
<path d="M20.5164 13.0900
L20.2745 13.0900
" />
<path d="M20.2745 13.0900
L20.1535 13.1505
" />
<path d="M20.1535 13.1505
L20.0930 13.2110
" />
<path d="M20.0930 13.2110
L20.0326 13.3319
" />
<path d="M21.2421 12.7272
L21.3025 12.6667
" />
<path d="M21.3025 12.6667
L21.4235 12.6062
" />
<path d="M21.4235 12.6062
L21.7259 12.6062
" />
<path d="M21.7259 12.6062
L21.8468 12.6667
" />
<path d="M21.8468 12.6667
L21.9073 12.7272
" />
<path d="M21.9073 12.7272
L21.9678 12.8481
" />
<path d="M21.9678 12.8481
L21.9678 12.9691
" />
<path d="M21.9678 12.9691
L21.9073 13.1505
" />
<path d="M21.9073 13.1505
L21.1816 13.8762
" />
<path d="M21.1816 13.8762
L21.9678 13.8762
" />
<path d="M22.6935 13.1505
L22.5725 13.0900
" />
<path d="M22.5725 13.0900
L22.5120 13.0296
" />
<path d="M22.5120 13.0296
L22.4516 12.9086
" />
<path d="M22.4516 12.9086
L22.4516 12.8481
" />
<path d="M22.4516 12.8481
L22.5120 12.7272
" />
<path d="M22.5120 12.7272
L22.5725 12.6667
" />
<path d="M22.5725 12.6667
L22.6935 12.6062
" />
<path d="M22.6935 12.6062
L22.9354 12.6062
" />
<path d="M22.9354 12.6062
L23.0563 12.6667
" />
<path d="M23.0563 12.6667
L23.1168 12.7272
" />
<path d="M23.1168 12.7272
L23.1773 12.8481
" />
<path d="M23.1773 12.8481
L23.1773 12.9086
" />
<path d="M23.1773 12.9086
L23.1168 13.0296
" />
<path d="M23.1168 13.0296
L23.0563 13.0900
" />
<path d="M23.0563 13.0900
L22.9354 13.1505
" />
<path d="M22.9354 13.1505
L22.6935 13.1505
" />
<path d="M22.6935 13.1505
L22.5725 13.2110
" />
<path d="M22.5725 13.2110
L22.5120 13.2715
" />
<path d="M22.5120 13.2715
L22.4516 13.3924
" />
<path d="M22.4516 13.3924
L22.4516 13.6343
" />
<path d="M22.4516 13.6343
L22.5120 13.7553
" />
<path d="M22.5120 13.7553
L22.5725 13.8158
" />
<path d="M22.5725 13.8158
L22.6935 13.8762
" />
<path d="M22.6935 13.8762
L22.9354 13.8762
" />
<path d="M22.9354 13.8762
L23.0563 13.8158
" />
<path d="M23.0563 13.8158
L23.1168 13.7553
" />
<path d="M23.1168 13.7553
L23.1773 13.6343
" />
<path d="M23.1773 13.6343
L23.1773 13.3924
" />
<path d="M23.1773 13.3924
L23.1168 13.2715
" />
<path d="M23.1168 13.2715
L23.0563 13.2110
" />
<path d="M23.0563 13.2110
L22.9354 13.1505
" />
<path d="M23.6006 12.6062
L24.3868 12.6062
" />
<path d="M24.3868 12.6062
L23.9634 13.0900
" />
<path d="M23.9634 13.0900
L24.1449 13.0900
" />
<path d="M24.1449 13.0900
L24.2658 13.1505
" />
<path d="M24.2658 13.1505
L24.3263 13.2110
" />
<path d="M24.3263 13.2110
L24.3868 13.3319
" />
<path d="M24.3868 13.3319
L24.3868 13.6343
" />
<path d="M24.3868 13.6343
L24.3263 13.7553
" />
<path d="M24.3263 13.7553
L24.2658 13.8158
" />
<path d="M24.2658 13.8158
L24.1449 13.8762
" />
<path d="M24.1449 13.8762
L23.7820 13.8762
" />
<path d="M23.7820 13.8762
L23.6611 13.8158
" />
<path d="M23.6611 13.8158
L23.6006 13.7553
" />
<path d="M24.9310 13.8762
L24.9310 12.6062
" />
<path d="M24.9310 12.6062
L25.3544 13.5134
" />
<path d="M25.3544 13.5134
L25.7777 12.6062
" />
<path d="M25.7777 12.6062
L25.7777 13.8762
" />
</g></g> 
</svg>
