<?xml version="1.0" standalone="no"?>
 <!DOCTYPE svg PUBLIC "-//W3C//DTD SVG 1.1//EN" 
 "http://www.w3.org/Graphics/SVG/1.1/DTD/svg11.dtd"> 
<svg
  xmlns:svg="http://www.w3.org/2000/svg"
  xmlns="http://www.w3.org/2000/svg"
  xmlns:xlink="http://www.w3.org/1999/xlink"
  version="1.1"
  width="40.3860mm" height="52.5018mm" viewBox="0.0000 0.0000 40.3860 52.5018">
<title>SVG Image created as w25q128jvp.svg date 2026/01/16 16:13:31 </title>
  <desc>Image generated by Eeschema-SVG </desc>
<g style="fill:#000000; fill-opacity:1.0000;stroke:#000000; stroke-opacity:1.0000;
stroke-linecap:round; stroke-linejoin:round;"
 transform="translate(0 0) scale(1 1)">
</g>
<g style="fill:#FFFFC2; fill-opacity:1.0000; stroke:none;">
<rect x="15.586400" y="16.090900" width="15.240000" height="20.320000" rx="0.000000" />
</g>
<g style="fill:none; 
stroke:#840000; stroke-width:0.2540; stroke-opacity:1; 
stroke-linecap:round; stroke-linejoin:round;">
<rect x="15.586400" y="16.090900" width="15.240000" height="20.320000" rx="0.000000" />
</g>
<g style="fill:none; 
stroke:#840000; stroke-width:0.1524; stroke-opacity:1; 
stroke-linecap:round; stroke-linejoin:round;">
<path d="M15.5864 18.6309
L13.0464 18.6309
" />
</g>
<g style="fill:none; 
stroke:#006464; stroke-width:0.1524; stroke-opacity:1; 
stroke-linecap:round; stroke-linejoin:round;">
<text x="16.0944" y="19.2659"
textLength="2.6827" font-size="1.6933" lengthAdjust="spacingAndGlyphs"
text-anchor="start" opacity="0">~{CS}</text>
<g class="stroked-text"><desc>~{CS}</desc>
<path d="M17.2226 19.0895
L17.1622 19.1500
" />
<path d="M17.1622 19.1500
L16.9807 19.2104
" />
<path d="M16.9807 19.2104
L16.8598 19.2104
" />
<path d="M16.8598 19.2104
L16.6784 19.1500
" />
<path d="M16.6784 19.1500
L16.5574 19.0290
" />
<path d="M16.5574 19.0290
L16.4969 18.9080
" />
<path d="M16.4969 18.9080
L16.4365 18.6661
" />
<path d="M16.4365 18.6661
L16.4365 18.4847
" />
<path d="M16.4365 18.4847
L16.4969 18.2428
" />
<path d="M16.4969 18.2428
L16.5574 18.1219
" />
<path d="M16.5574 18.1219
L16.6784 18.0009
" />
<path d="M16.6784 18.0009
L16.8598 17.9404
" />
<path d="M16.8598 17.9404
L16.9807 17.9404
" />
<path d="M16.9807 17.9404
L17.1622 18.0009
" />
<path d="M17.1622 18.0009
L17.2226 18.0614
" />
<path d="M17.7065 19.1500
L17.8879 19.2104
" />
<path d="M17.8879 19.2104
L18.1903 19.2104
" />
<path d="M18.1903 19.2104
L18.3112 19.1500
" />
<path d="M18.3112 19.1500
L18.3717 19.0895
" />
<path d="M18.3717 19.0895
L18.4322 18.9685
" />
<path d="M18.4322 18.9685
L18.4322 18.8476
" />
<path d="M18.4322 18.8476
L18.3717 18.7266
" />
<path d="M18.3717 18.7266
L18.3112 18.6661
" />
<path d="M18.3112 18.6661
L18.1903 18.6057
" />
<path d="M18.1903 18.6057
L17.9484 18.5452
" />
<path d="M17.9484 18.5452
L17.8274 18.4847
" />
<path d="M17.8274 18.4847
L17.7669 18.4242
" />
<path d="M17.7669 18.4242
L17.7065 18.3033
" />
<path d="M17.7065 18.3033
L17.7065 18.1823
" />
<path d="M17.7065 18.1823
L17.7669 18.0614
" />
<path d="M17.7669 18.0614
L17.8274 18.0009
" />
<path d="M17.8274 18.0009
L17.9484 17.9404
" />
<path d="M17.9484 17.9404
L18.2507 17.9404
" />
<path d="M18.2507 17.9404
L18.4322 18.0009
" />
<path d="M16.3216 17.5879
L18.5471 17.5879
" />
</g></g>
<g style="fill:none; 
stroke:#A90000; stroke-width:0.1524; stroke-opacity:1; 
stroke-linecap:round; stroke-linejoin:round;">
<text x="14.3164" y="18.3769"
textLength="1.4127" font-size="1.6933" lengthAdjust="spacingAndGlyphs"
text-anchor="middle" opacity="0">1</text>
<g class="stroked-text"><desc>1</desc>
<path d="M14.6793 18.2134
L13.9536 18.2134
" />
<path d="M14.3164 18.2134
L14.3164 16.9434
" />
<path d="M14.3164 16.9434
L14.1955 17.1249
" />
<path d="M14.1955 17.1249
L14.0745 17.2458
" />
<path d="M14.0745 17.2458
L13.9536 17.3063
" />
</g></g>
<g style="fill:none; 
stroke:#840000; stroke-width:0.1524; stroke-opacity:1; 
stroke-linecap:round; stroke-linejoin:round;">
<path d="M15.5864 26.2509
L13.0464 26.2509
" />
</g>
<g style="fill:none; 
stroke:#006464; stroke-width:0.1524; stroke-opacity:1; 
stroke-linecap:round; stroke-linejoin:round;">
<text x="16.0944" y="26.8859"
textLength="7.6419" font-size="1.6933" lengthAdjust="spacingAndGlyphs"
text-anchor="start" opacity="0">DO(IO1)</text>
<g class="stroked-text"><desc>DO(IO1)</desc>
<path d="M16.4969 26.8304
L16.4969 25.5604
" />
<path d="M16.4969 25.5604
L16.7993 25.5604
" />
<path d="M16.7993 25.5604
L16.9807 25.6209
" />
<path d="M16.9807 25.6209
L17.1017 25.7419
" />
<path d="M17.1017 25.7419
L17.1622 25.8628
" />
<path d="M17.1622 25.8628
L17.2226 26.1047
" />
<path d="M17.2226 26.1047
L17.2226 26.2861
" />
<path d="M17.2226 26.2861
L17.1622 26.5280
" />
<path d="M17.1622 26.5280
L17.1017 26.6490
" />
<path d="M17.1017 26.6490
L16.9807 26.7700
" />
<path d="M16.9807 26.7700
L16.7993 26.8304
" />
<path d="M16.7993 26.8304
L16.4969 26.8304
" />
<path d="M18.0088 25.5604
L18.2507 25.5604
" />
<path d="M18.2507 25.5604
L18.3717 25.6209
" />
<path d="M18.3717 25.6209
L18.4926 25.7419
" />
<path d="M18.4926 25.7419
L18.5531 25.9838
" />
<path d="M18.5531 25.9838
L18.5531 26.4071
" />
<path d="M18.5531 26.4071
L18.4926 26.6490
" />
<path d="M18.4926 26.6490
L18.3717 26.7700
" />
<path d="M18.3717 26.7700
L18.2507 26.8304
" />
<path d="M18.2507 26.8304
L18.0088 26.8304
" />
<path d="M18.0088 26.8304
L17.8879 26.7700
" />
<path d="M17.8879 26.7700
L17.7669 26.6490
" />
<path d="M17.7669 26.6490
L17.7065 26.4071
" />
<path d="M17.7065 26.4071
L17.7065 25.9838
" />
<path d="M17.7065 25.9838
L17.7669 25.7419
" />
<path d="M17.7669 25.7419
L17.8879 25.6209
" />
<path d="M17.8879 25.6209
L18.0088 25.5604
" />
<path d="M19.4603 27.3142
L19.3998 27.2538
" />
<path d="M19.3998 27.2538
L19.2789 27.0723
" />
<path d="M19.2789 27.0723
L19.2184 26.9514
" />
<path d="M19.2184 26.9514
L19.1579 26.7700
" />
<path d="M19.1579 26.7700
L19.0974 26.4676
" />
<path d="M19.0974 26.4676
L19.0974 26.2257
" />
<path d="M19.0974 26.2257
L19.1579 25.9233
" />
<path d="M19.1579 25.9233
L19.2184 25.7419
" />
<path d="M19.2184 25.7419
L19.2789 25.6209
" />
<path d="M19.2789 25.6209
L19.3998 25.4395
" />
<path d="M19.3998 25.4395
L19.4603 25.3790
" />
<path d="M19.9441 26.8304
L19.9441 25.5604
" />
<path d="M20.7908 25.5604
L21.0327 25.5604
" />
<path d="M21.0327 25.5604
L21.1537 25.6209
" />
<path d="M21.1537 25.6209
L21.2746 25.7419
" />
<path d="M21.2746 25.7419
L21.3351 25.9838
" />
<path d="M21.3351 25.9838
L21.3351 26.4071
" />
<path d="M21.3351 26.4071
L21.2746 26.6490
" />
<path d="M21.2746 26.6490
L21.1537 26.7700
" />
<path d="M21.1537 26.7700
L21.0327 26.8304
" />
<path d="M21.0327 26.8304
L20.7908 26.8304
" />
<path d="M20.7908 26.8304
L20.6699 26.7700
" />
<path d="M20.6699 26.7700
L20.5489 26.6490
" />
<path d="M20.5489 26.6490
L20.4885 26.4071
" />
<path d="M20.4885 26.4071
L20.4885 25.9838
" />
<path d="M20.4885 25.9838
L20.5489 25.7419
" />
<path d="M20.5489 25.7419
L20.6699 25.6209
" />
<path d="M20.6699 25.6209
L20.7908 25.5604
" />
<path d="M22.5447 26.8304
L21.8190 26.8304
" />
<path d="M22.1818 26.8304
L22.1818 25.5604
" />
<path d="M22.1818 25.5604
L22.0609 25.7419
" />
<path d="M22.0609 25.7419
L21.9399 25.8628
" />
<path d="M21.9399 25.8628
L21.8190 25.9233
" />
<path d="M22.9680 27.3142
L23.0285 27.2538
" />
<path d="M23.0285 27.2538
L23.1494 27.0723
" />
<path d="M23.1494 27.0723
L23.2099 26.9514
" />
<path d="M23.2099 26.9514
L23.2704 26.7700
" />
<path d="M23.2704 26.7700
L23.3308 26.4676
" />
<path d="M23.3308 26.4676
L23.3308 26.2257
" />
<path d="M23.3308 26.2257
L23.2704 25.9233
" />
<path d="M23.2704 25.9233
L23.2099 25.7419
" />
<path d="M23.2099 25.7419
L23.1494 25.6209
" />
<path d="M23.1494 25.6209
L23.0285 25.4395
" />
<path d="M23.0285 25.4395
L22.9680 25.3790
" />
</g></g>
<g style="fill:none; 
stroke:#A90000; stroke-width:0.1524; stroke-opacity:1; 
stroke-linecap:round; stroke-linejoin:round;">
<text x="14.3164" y="25.9969"
textLength="1.4127" font-size="1.6933" lengthAdjust="spacingAndGlyphs"
text-anchor="middle" opacity="0">2</text>
<g class="stroked-text"><desc>2</desc>
<path d="M13.9536 24.6844
L14.0140 24.6239
" />
<path d="M14.0140 24.6239
L14.1350 24.5634
" />
<path d="M14.1350 24.5634
L14.4374 24.5634
" />
<path d="M14.4374 24.5634
L14.5583 24.6239
" />
<path d="M14.5583 24.6239
L14.6188 24.6844
" />
<path d="M14.6188 24.6844
L14.6793 24.8053
" />
<path d="M14.6793 24.8053
L14.6793 24.9263
" />
<path d="M14.6793 24.9263
L14.6188 25.1077
" />
<path d="M14.6188 25.1077
L13.8931 25.8334
" />
<path d="M13.8931 25.8334
L14.6793 25.8334
" />
</g></g>
<g style="fill:none; 
stroke:#840000; stroke-width:0.1524; stroke-opacity:1; 
stroke-linecap:round; stroke-linejoin:round;">
<path d="M15.5864 28.7909
L13.0464 28.7909
" />
</g>
<g style="fill:none; 
stroke:#006464; stroke-width:0.1524; stroke-opacity:1; 
stroke-linecap:round; stroke-linejoin:round;">
<text x="16.0944" y="29.4259"
textLength="3.3480" font-size="1.6933" lengthAdjust="spacingAndGlyphs"
text-anchor="start" opacity="0">IO2</text>
<g class="stroked-text"><desc>IO2</desc>
<path d="M16.4969 29.3704
L16.4969 28.1004
" />
<path d="M17.3436 28.1004
L17.5855 28.1004
" />
<path d="M17.5855 28.1004
L17.7065 28.1609
" />
<path d="M17.7065 28.1609
L17.8274 28.2819
" />
<path d="M17.8274 28.2819
L17.8879 28.5238
" />
<path d="M17.8879 28.5238
L17.8879 28.9471
" />
<path d="M17.8879 28.9471
L17.8274 29.1890
" />
<path d="M17.8274 29.1890
L17.7065 29.3100
" />
<path d="M17.7065 29.3100
L17.5855 29.3704
" />
<path d="M17.5855 29.3704
L17.3436 29.3704
" />
<path d="M17.3436 29.3704
L17.2227 29.3100
" />
<path d="M17.2227 29.3100
L17.1017 29.1890
" />
<path d="M17.1017 29.1890
L17.0413 28.9471
" />
<path d="M17.0413 28.9471
L17.0413 28.5238
" />
<path d="M17.0413 28.5238
L17.1017 28.2819
" />
<path d="M17.1017 28.2819
L17.2227 28.1609
" />
<path d="M17.2227 28.1609
L17.3436 28.1004
" />
<path d="M18.3718 28.2214
L18.4322 28.1609
" />
<path d="M18.4322 28.1609
L18.5532 28.1004
" />
<path d="M18.5532 28.1004
L18.8556 28.1004
" />
<path d="M18.8556 28.1004
L18.9765 28.1609
" />
<path d="M18.9765 28.1609
L19.0370 28.2214
" />
<path d="M19.0370 28.2214
L19.0975 28.3423
" />
<path d="M19.0975 28.3423
L19.0975 28.4633
" />
<path d="M19.0975 28.4633
L19.0370 28.6447
" />
<path d="M19.0370 28.6447
L18.3113 29.3704
" />
<path d="M18.3113 29.3704
L19.0975 29.3704
" />
</g></g>
<g style="fill:none; 
stroke:#A90000; stroke-width:0.1524; stroke-opacity:1; 
stroke-linecap:round; stroke-linejoin:round;">
<text x="14.3164" y="28.5369"
textLength="1.4127" font-size="1.6933" lengthAdjust="spacingAndGlyphs"
text-anchor="middle" opacity="0">3</text>
<g class="stroked-text"><desc>3</desc>
<path d="M13.8931 27.1034
L14.6793 27.1034
" />
<path d="M14.6793 27.1034
L14.2559 27.5872
" />
<path d="M14.2559 27.5872
L14.4374 27.5872
" />
<path d="M14.4374 27.5872
L14.5583 27.6477
" />
<path d="M14.5583 27.6477
L14.6188 27.7082
" />
<path d="M14.6188 27.7082
L14.6793 27.8291
" />
<path d="M14.6793 27.8291
L14.6793 28.1315
" />
<path d="M14.6793 28.1315
L14.6188 28.2525
" />
<path d="M14.6188 28.2525
L14.5583 28.3130
" />
<path d="M14.5583 28.3130
L14.4374 28.3734
" />
<path d="M14.4374 28.3734
L14.0745 28.3734
" />
<path d="M14.0745 28.3734
L13.9536 28.3130
" />
<path d="M13.9536 28.3130
L13.8931 28.2525
" />
</g></g>
<g style="fill:none; 
stroke:#840000; stroke-width:0.1524; stroke-opacity:1; 
stroke-linecap:round; stroke-linejoin:round;">
<path d="M23.2064 36.4109
L23.2064 38.9509
" />
</g>
<g style="fill:none; 
stroke:#006464; stroke-width:0.1524; stroke-opacity:1; 
stroke-linecap:round; stroke-linejoin:round;">
<g transform="rotate(-90.000000 23.2064 35.9029)">
<text x="23.2064" y="36.5379"
textLength="4.0737" font-size="1.6933" lengthAdjust="spacingAndGlyphs"
text-anchor="start" opacity="0">GND</text>
</g>
<g class="stroked-text"><desc>GND</desc>
<path d="M22.5764 34.8350
L22.5159 34.9560
" />
<path d="M22.5159 34.9560
L22.5159 35.1374
" />
<path d="M22.5159 35.1374
L22.5764 35.3188
" />
<path d="M22.5764 35.3188
L22.6974 35.4398
" />
<path d="M22.6974 35.4398
L22.8183 35.5003
" />
<path d="M22.8183 35.5003
L23.0602 35.5607
" />
<path d="M23.0602 35.5607
L23.2416 35.5607
" />
<path d="M23.2416 35.5607
L23.4835 35.5003
" />
<path d="M23.4835 35.5003
L23.6045 35.4398
" />
<path d="M23.6045 35.4398
L23.7255 35.3188
" />
<path d="M23.7255 35.3188
L23.7859 35.1374
" />
<path d="M23.7859 35.1374
L23.7859 35.0165
" />
<path d="M23.7859 35.0165
L23.7255 34.8350
" />
<path d="M23.7255 34.8350
L23.6650 34.7746
" />
<path d="M23.6650 34.7746
L23.2416 34.7746
" />
<path d="M23.2416 34.7746
L23.2416 35.0165
" />
<path d="M23.7859 34.2303
L22.5159 34.2303
" />
<path d="M22.5159 34.2303
L23.7859 33.5046
" />
<path d="M23.7859 33.5046
L22.5159 33.5046
" />
<path d="M23.7859 32.8998
L22.5159 32.8998
" />
<path d="M22.5159 32.8998
L22.5159 32.5974
" />
<path d="M22.5159 32.5974
L22.5764 32.4160
" />
<path d="M22.5764 32.4160
L22.6974 32.2950
" />
<path d="M22.6974 32.2950
L22.8183 32.2345
" />
<path d="M22.8183 32.2345
L23.0602 32.1741
" />
<path d="M23.0602 32.1741
L23.2416 32.1741
" />
<path d="M23.2416 32.1741
L23.4835 32.2345
" />
<path d="M23.4835 32.2345
L23.6045 32.2950
" />
<path d="M23.6045 32.2950
L23.7255 32.4160
" />
<path d="M23.7255 32.4160
L23.7859 32.5974
" />
<path d="M23.7859 32.5974
L23.7859 32.8998
" />
</g></g>
<g style="fill:none; 
stroke:#A90000; stroke-width:0.1524; stroke-opacity:1; 
stroke-linecap:round; stroke-linejoin:round;">
<g transform="rotate(-90.000000 22.9524 37.6809)">
<text x="22.9524" y="37.6809"
textLength="1.4127" font-size="1.6933" lengthAdjust="spacingAndGlyphs"
text-anchor="middle" opacity="0">4</text>
</g>
<g class="stroked-text"><desc>4</desc>
<path d="M21.9423 37.4389
L22.7889 37.4389
" />
<path d="M21.4585 37.7413
L22.3656 38.0436
" />
<path d="M22.3656 38.0436
L22.3656 37.2575
" />
</g></g>
<g style="fill:none; 
stroke:#840000; stroke-width:0.1524; stroke-opacity:1; 
stroke-linecap:round; stroke-linejoin:round;">
<path d="M15.5864 23.7109
L13.0464 23.7109
" />
</g>
<g style="fill:none; 
stroke:#006464; stroke-width:0.1524; stroke-opacity:1; 
stroke-linecap:round; stroke-linejoin:round;">
<text x="16.0944" y="24.3459"
textLength="6.9162" font-size="1.6933" lengthAdjust="spacingAndGlyphs"
text-anchor="start" opacity="0">DI(IO0)</text>
<g class="stroked-text"><desc>DI(IO0)</desc>
<path d="M16.4969 24.2904
L16.4969 23.0204
" />
<path d="M16.4969 23.0204
L16.7993 23.0204
" />
<path d="M16.7993 23.0204
L16.9807 23.0809
" />
<path d="M16.9807 23.0809
L17.1017 23.2019
" />
<path d="M17.1017 23.2019
L17.1622 23.3228
" />
<path d="M17.1622 23.3228
L17.2226 23.5647
" />
<path d="M17.2226 23.5647
L17.2226 23.7461
" />
<path d="M17.2226 23.7461
L17.1622 23.9880
" />
<path d="M17.1622 23.9880
L17.1017 24.1090
" />
<path d="M17.1017 24.1090
L16.9807 24.2300
" />
<path d="M16.9807 24.2300
L16.7993 24.2904
" />
<path d="M16.7993 24.2904
L16.4969 24.2904
" />
<path d="M17.7669 24.2904
L17.7669 23.0204
" />
<path d="M18.7346 24.7742
L18.6741 24.7138
" />
<path d="M18.6741 24.7138
L18.5532 24.5323
" />
<path d="M18.5532 24.5323
L18.4927 24.4114
" />
<path d="M18.4927 24.4114
L18.4322 24.2300
" />
<path d="M18.4322 24.2300
L18.3717 23.9276
" />
<path d="M18.3717 23.9276
L18.3717 23.6857
" />
<path d="M18.3717 23.6857
L18.4322 23.3833
" />
<path d="M18.4322 23.3833
L18.4927 23.2019
" />
<path d="M18.4927 23.2019
L18.5532 23.0809
" />
<path d="M18.5532 23.0809
L18.6741 22.8995
" />
<path d="M18.6741 22.8995
L18.7346 22.8390
" />
<path d="M19.2184 24.2904
L19.2184 23.0204
" />
<path d="M20.0651 23.0204
L20.3070 23.0204
" />
<path d="M20.3070 23.0204
L20.4280 23.0809
" />
<path d="M20.4280 23.0809
L20.5489 23.2019
" />
<path d="M20.5489 23.2019
L20.6094 23.4438
" />
<path d="M20.6094 23.4438
L20.6094 23.8671
" />
<path d="M20.6094 23.8671
L20.5489 24.1090
" />
<path d="M20.5489 24.1090
L20.4280 24.2300
" />
<path d="M20.4280 24.2300
L20.3070 24.2904
" />
<path d="M20.3070 24.2904
L20.0651 24.2904
" />
<path d="M20.0651 24.2904
L19.9442 24.2300
" />
<path d="M19.9442 24.2300
L19.8232 24.1090
" />
<path d="M19.8232 24.1090
L19.7628 23.8671
" />
<path d="M19.7628 23.8671
L19.7628 23.4438
" />
<path d="M19.7628 23.4438
L19.8232 23.2019
" />
<path d="M19.8232 23.2019
L19.9442 23.0809
" />
<path d="M19.9442 23.0809
L20.0651 23.0204
" />
<path d="M21.3956 23.0204
L21.5166 23.0204
" />
<path d="M21.5166 23.0204
L21.6375 23.0809
" />
<path d="M21.6375 23.0809
L21.6980 23.1414
" />
<path d="M21.6980 23.1414
L21.7585 23.2623
" />
<path d="M21.7585 23.2623
L21.8190 23.5042
" />
<path d="M21.8190 23.5042
L21.8190 23.8066
" />
<path d="M21.8190 23.8066
L21.7585 24.0485
" />
<path d="M21.7585 24.0485
L21.6980 24.1695
" />
<path d="M21.6980 24.1695
L21.6375 24.2300
" />
<path d="M21.6375 24.2300
L21.5166 24.2904
" />
<path d="M21.5166 24.2904
L21.3956 24.2904
" />
<path d="M21.3956 24.2904
L21.2747 24.2300
" />
<path d="M21.2747 24.2300
L21.2142 24.1695
" />
<path d="M21.2142 24.1695
L21.1537 24.0485
" />
<path d="M21.1537 24.0485
L21.0933 23.8066
" />
<path d="M21.0933 23.8066
L21.0933 23.5042
" />
<path d="M21.0933 23.5042
L21.1537 23.2623
" />
<path d="M21.1537 23.2623
L21.2142 23.1414
" />
<path d="M21.2142 23.1414
L21.2747 23.0809
" />
<path d="M21.2747 23.0809
L21.3956 23.0204
" />
<path d="M22.2423 24.7742
L22.3028 24.7138
" />
<path d="M22.3028 24.7138
L22.4237 24.5323
" />
<path d="M22.4237 24.5323
L22.4842 24.4114
" />
<path d="M22.4842 24.4114
L22.5447 24.2300
" />
<path d="M22.5447 24.2300
L22.6051 23.9276
" />
<path d="M22.6051 23.9276
L22.6051 23.6857
" />
<path d="M22.6051 23.6857
L22.5447 23.3833
" />
<path d="M22.5447 23.3833
L22.4842 23.2019
" />
<path d="M22.4842 23.2019
L22.4237 23.0809
" />
<path d="M22.4237 23.0809
L22.3028 22.8995
" />
<path d="M22.3028 22.8995
L22.2423 22.8390
" />
</g></g>
<g style="fill:none; 
stroke:#A90000; stroke-width:0.1524; stroke-opacity:1; 
stroke-linecap:round; stroke-linejoin:round;">
<text x="14.3164" y="23.4569"
textLength="1.4127" font-size="1.6933" lengthAdjust="spacingAndGlyphs"
text-anchor="middle" opacity="0">5</text>
<g class="stroked-text"><desc>5</desc>
<path d="M14.6188 22.0234
L14.0140 22.0234
" />
<path d="M14.0140 22.0234
L13.9536 22.6282
" />
<path d="M13.9536 22.6282
L14.0140 22.5677
" />
<path d="M14.0140 22.5677
L14.1350 22.5072
" />
<path d="M14.1350 22.5072
L14.4374 22.5072
" />
<path d="M14.4374 22.5072
L14.5583 22.5677
" />
<path d="M14.5583 22.5677
L14.6188 22.6282
" />
<path d="M14.6188 22.6282
L14.6793 22.7491
" />
<path d="M14.6793 22.7491
L14.6793 23.0515
" />
<path d="M14.6793 23.0515
L14.6188 23.1725
" />
<path d="M14.6188 23.1725
L14.5583 23.2330
" />
<path d="M14.5583 23.2330
L14.4374 23.2934
" />
<path d="M14.4374 23.2934
L14.1350 23.2934
" />
<path d="M14.1350 23.2934
L14.0140 23.2330
" />
<path d="M14.0140 23.2330
L13.9536 23.1725
" />
</g></g>
<g style="fill:none; 
stroke:#840000; stroke-width:0.1524; stroke-opacity:1; 
stroke-linecap:round; stroke-linejoin:round;">
<path d="M15.5864 21.1709
L13.0464 21.1709
" />
</g>
<g style="fill:none; 
stroke:#006464; stroke-width:0.1524; stroke-opacity:1; 
stroke-linecap:round; stroke-linejoin:round;">
<text x="16.0944" y="21.8059"
textLength="3.7713" font-size="1.6933" lengthAdjust="spacingAndGlyphs"
text-anchor="start" opacity="0">CLK</text>
<g class="stroked-text"><desc>CLK</desc>
<path d="M17.2226 21.6295
L17.1622 21.6900
" />
<path d="M17.1622 21.6900
L16.9807 21.7504
" />
<path d="M16.9807 21.7504
L16.8598 21.7504
" />
<path d="M16.8598 21.7504
L16.6784 21.6900
" />
<path d="M16.6784 21.6900
L16.5574 21.5690
" />
<path d="M16.5574 21.5690
L16.4969 21.4480
" />
<path d="M16.4969 21.4480
L16.4365 21.2061
" />
<path d="M16.4365 21.2061
L16.4365 21.0247
" />
<path d="M16.4365 21.0247
L16.4969 20.7828
" />
<path d="M16.4969 20.7828
L16.5574 20.6619
" />
<path d="M16.5574 20.6619
L16.6784 20.5409
" />
<path d="M16.6784 20.5409
L16.8598 20.4804
" />
<path d="M16.8598 20.4804
L16.9807 20.4804
" />
<path d="M16.9807 20.4804
L17.1622 20.5409
" />
<path d="M17.1622 20.5409
L17.2226 20.6014
" />
<path d="M18.3717 21.7504
L17.7669 21.7504
" />
<path d="M17.7669 21.7504
L17.7669 20.4804
" />
<path d="M18.7950 21.7504
L18.7950 20.4804
" />
<path d="M19.5207 21.7504
L18.9765 21.0247
" />
<path d="M19.5207 20.4804
L18.7950 21.2061
" />
</g></g>
<g style="fill:none; 
stroke:#A90000; stroke-width:0.1524; stroke-opacity:1; 
stroke-linecap:round; stroke-linejoin:round;">
<text x="14.3164" y="20.9169"
textLength="1.4127" font-size="1.6933" lengthAdjust="spacingAndGlyphs"
text-anchor="middle" opacity="0">6</text>
<g class="stroked-text"><desc>6</desc>
<path d="M14.5583 19.4834
L14.3164 19.4834
" />
<path d="M14.3164 19.4834
L14.1955 19.5439
" />
<path d="M14.1955 19.5439
L14.1350 19.6044
" />
<path d="M14.1350 19.6044
L14.0140 19.7858
" />
<path d="M14.0140 19.7858
L13.9536 20.0277
" />
<path d="M13.9536 20.0277
L13.9536 20.5115
" />
<path d="M13.9536 20.5115
L14.0140 20.6325
" />
<path d="M14.0140 20.6325
L14.0745 20.6930
" />
<path d="M14.0745 20.6930
L14.1955 20.7534
" />
<path d="M14.1955 20.7534
L14.4374 20.7534
" />
<path d="M14.4374 20.7534
L14.5583 20.6930
" />
<path d="M14.5583 20.6930
L14.6188 20.6325
" />
<path d="M14.6188 20.6325
L14.6793 20.5115
" />
<path d="M14.6793 20.5115
L14.6793 20.2091
" />
<path d="M14.6793 20.2091
L14.6188 20.0882
" />
<path d="M14.6188 20.0882
L14.5583 20.0277
" />
<path d="M14.5583 20.0277
L14.4374 19.9672
" />
<path d="M14.4374 19.9672
L14.1955 19.9672
" />
<path d="M14.1955 19.9672
L14.0745 20.0277
" />
<path d="M14.0745 20.0277
L14.0140 20.0882
" />
<path d="M14.0140 20.0882
L13.9536 20.2091
" />
</g></g>
<g style="fill:none; 
stroke:#840000; stroke-width:0.1524; stroke-opacity:1; 
stroke-linecap:round; stroke-linejoin:round;">
<path d="M15.5864 31.3309
L13.0464 31.3309
" />
</g>
<g style="fill:none; 
stroke:#006464; stroke-width:0.1524; stroke-opacity:1; 
stroke-linecap:round; stroke-linejoin:round;">
<text x="16.0944" y="31.9659"
textLength="3.3480" font-size="1.6933" lengthAdjust="spacingAndGlyphs"
text-anchor="start" opacity="0">IO3</text>
<g class="stroked-text"><desc>IO3</desc>
<path d="M16.4969 31.9104
L16.4969 30.6404
" />
<path d="M17.3436 30.6404
L17.5855 30.6404
" />
<path d="M17.5855 30.6404
L17.7065 30.7009
" />
<path d="M17.7065 30.7009
L17.8274 30.8219
" />
<path d="M17.8274 30.8219
L17.8879 31.0638
" />
<path d="M17.8879 31.0638
L17.8879 31.4871
" />
<path d="M17.8879 31.4871
L17.8274 31.7290
" />
<path d="M17.8274 31.7290
L17.7065 31.8500
" />
<path d="M17.7065 31.8500
L17.5855 31.9104
" />
<path d="M17.5855 31.9104
L17.3436 31.9104
" />
<path d="M17.3436 31.9104
L17.2227 31.8500
" />
<path d="M17.2227 31.8500
L17.1017 31.7290
" />
<path d="M17.1017 31.7290
L17.0413 31.4871
" />
<path d="M17.0413 31.4871
L17.0413 31.0638
" />
<path d="M17.0413 31.0638
L17.1017 30.8219
" />
<path d="M17.1017 30.8219
L17.2227 30.7009
" />
<path d="M17.2227 30.7009
L17.3436 30.6404
" />
<path d="M18.3113 30.6404
L19.0975 30.6404
" />
<path d="M19.0975 30.6404
L18.6741 31.1242
" />
<path d="M18.6741 31.1242
L18.8556 31.1242
" />
<path d="M18.8556 31.1242
L18.9765 31.1847
" />
<path d="M18.9765 31.1847
L19.0370 31.2452
" />
<path d="M19.0370 31.2452
L19.0975 31.3661
" />
<path d="M19.0975 31.3661
L19.0975 31.6685
" />
<path d="M19.0975 31.6685
L19.0370 31.7895
" />
<path d="M19.0370 31.7895
L18.9765 31.8500
" />
<path d="M18.9765 31.8500
L18.8556 31.9104
" />
<path d="M18.8556 31.9104
L18.4927 31.9104
" />
<path d="M18.4927 31.9104
L18.3718 31.8500
" />
<path d="M18.3718 31.8500
L18.3113 31.7895
" />
</g></g>
<g style="fill:none; 
stroke:#A90000; stroke-width:0.1524; stroke-opacity:1; 
stroke-linecap:round; stroke-linejoin:round;">
<text x="14.3164" y="31.0769"
textLength="1.4127" font-size="1.6933" lengthAdjust="spacingAndGlyphs"
text-anchor="middle" opacity="0">7</text>
<g class="stroked-text"><desc>7</desc>
<path d="M13.8931 29.6434
L14.7397 29.6434
" />
<path d="M14.7397 29.6434
L14.1955 30.9134
" />
</g></g>
<g style="fill:none; 
stroke:#840000; stroke-width:0.1524; stroke-opacity:1; 
stroke-linecap:round; stroke-linejoin:round;">
<path d="M23.2064 16.0909
L23.2064 13.5509
" />
</g>
<g style="fill:none; 
stroke:#006464; stroke-width:0.1524; stroke-opacity:1; 
stroke-linecap:round; stroke-linejoin:round;">
<g transform="rotate(-90.000000 23.2064 16.5989)">
<text x="23.2064" y="17.2339"
textLength="3.8318" font-size="1.6933" lengthAdjust="spacingAndGlyphs"
text-anchor="end" opacity="0">VCC</text>
</g>
<g class="stroked-text"><desc>VCC</desc>
<path d="M22.5159 20.2067
L23.7859 19.7834
" />
<path d="M23.7859 19.7834
L22.5159 19.3600
" />
<path d="M23.6650 18.2110
L23.7255 18.2714
" />
<path d="M23.7255 18.2714
L23.7859 18.4529
" />
<path d="M23.7859 18.4529
L23.7859 18.5738
" />
<path d="M23.7859 18.5738
L23.7255 18.7552
" />
<path d="M23.7255 18.7552
L23.6045 18.8762
" />
<path d="M23.6045 18.8762
L23.4835 18.9367
" />
<path d="M23.4835 18.9367
L23.2416 18.9971
" />
<path d="M23.2416 18.9971
L23.0602 18.9971
" />
<path d="M23.0602 18.9971
L22.8183 18.9367
" />
<path d="M22.8183 18.9367
L22.6974 18.8762
" />
<path d="M22.6974 18.8762
L22.5764 18.7552
" />
<path d="M22.5764 18.7552
L22.5159 18.5738
" />
<path d="M22.5159 18.5738
L22.5159 18.4529
" />
<path d="M22.5159 18.4529
L22.5764 18.2714
" />
<path d="M22.5764 18.2714
L22.6369 18.2110
" />
<path d="M23.6650 16.9410
L23.7255 17.0014
" />
<path d="M23.7255 17.0014
L23.7859 17.1829
" />
<path d="M23.7859 17.1829
L23.7859 17.3038
" />
<path d="M23.7859 17.3038
L23.7255 17.4852
" />
<path d="M23.7255 17.4852
L23.6045 17.6062
" />
<path d="M23.6045 17.6062
L23.4835 17.6667
" />
<path d="M23.4835 17.6667
L23.2416 17.7271
" />
<path d="M23.2416 17.7271
L23.0602 17.7271
" />
<path d="M23.0602 17.7271
L22.8183 17.6667
" />
<path d="M22.8183 17.6667
L22.6974 17.6062
" />
<path d="M22.6974 17.6062
L22.5764 17.4852
" />
<path d="M22.5764 17.4852
L22.5159 17.3038
" />
<path d="M22.5159 17.3038
L22.5159 17.1829
" />
<path d="M22.5159 17.1829
L22.5764 17.0014
" />
<path d="M22.5764 17.0014
L22.6369 16.9410
" />
</g></g>
<g style="fill:none; 
stroke:#A90000; stroke-width:0.1524; stroke-opacity:1; 
stroke-linecap:round; stroke-linejoin:round;">
<g transform="rotate(-90.000000 22.9524 14.8209)">
<text x="22.9524" y="14.8209"
textLength="1.4127" font-size="1.6933" lengthAdjust="spacingAndGlyphs"
text-anchor="middle" opacity="0">8</text>
</g>
<g class="stroked-text"><desc>8</desc>
<path d="M22.0632 14.9417
L22.0027 15.0627
" />
<path d="M22.0027 15.0627
L21.9423 15.1232
" />
<path d="M21.9423 15.1232
L21.8213 15.1836
" />
<path d="M21.8213 15.1836
L21.7608 15.1836
" />
<path d="M21.7608 15.1836
L21.6399 15.1232
" />
<path d="M21.6399 15.1232
L21.5794 15.0627
" />
<path d="M21.5794 15.0627
L21.5189 14.9417
" />
<path d="M21.5189 14.9417
L21.5189 14.6998
" />
<path d="M21.5189 14.6998
L21.5794 14.5789
" />
<path d="M21.5794 14.5789
L21.6399 14.5184
" />
<path d="M21.6399 14.5184
L21.7608 14.4579
" />
<path d="M21.7608 14.4579
L21.8213 14.4579
" />
<path d="M21.8213 14.4579
L21.9423 14.5184
" />
<path d="M21.9423 14.5184
L22.0027 14.5789
" />
<path d="M22.0027 14.5789
L22.0632 14.6998
" />
<path d="M22.0632 14.6998
L22.0632 14.9417
" />
<path d="M22.0632 14.9417
L22.1237 15.0627
" />
<path d="M22.1237 15.0627
L22.1842 15.1232
" />
<path d="M22.1842 15.1232
L22.3051 15.1836
" />
<path d="M22.3051 15.1836
L22.5470 15.1836
" />
<path d="M22.5470 15.1836
L22.6680 15.1232
" />
<path d="M22.6680 15.1232
L22.7285 15.0627
" />
<path d="M22.7285 15.0627
L22.7889 14.9417
" />
<path d="M22.7889 14.9417
L22.7889 14.6998
" />
<path d="M22.7889 14.6998
L22.7285 14.5789
" />
<path d="M22.7285 14.5789
L22.6680 14.5184
" />
<path d="M22.6680 14.5184
L22.5470 14.4579
" />
<path d="M22.5470 14.4579
L22.3051 14.4579
" />
<path d="M22.3051 14.4579
L22.1842 14.5184
" />
<path d="M22.1842 14.5184
L22.1237 14.5789
" />
<path d="M22.1237 14.5789
L22.0632 14.6998
" />
</g></g>
<g style="fill:none; 
stroke:#006464; stroke-width:0.1588; stroke-opacity:1; 
stroke-linecap:round; stroke-linejoin:round;">
<text x="16.8564" y="15.4560"
textLength="2.6415" font-size="1.6933" lengthAdjust="spacingAndGlyphs"
text-anchor="middle" opacity="0">U?</text>
<g class="stroked-text"><desc>U?</desc>
<path d="M15.9492 14.1302
L15.9492 15.1583
" />
<path d="M15.9492 15.1583
L16.0097 15.2793
" />
<path d="M16.0097 15.2793
L16.0702 15.3398
" />
<path d="M16.0702 15.3398
L16.1911 15.4002
" />
<path d="M16.1911 15.4002
L16.4330 15.4002
" />
<path d="M16.4330 15.4002
L16.5540 15.3398
" />
<path d="M16.5540 15.3398
L16.6145 15.2793
" />
<path d="M16.6145 15.2793
L16.6749 15.1583
" />
<path d="M16.6749 15.1583
L16.6749 14.1302
" />
<path d="M17.4612 15.2793
L17.5216 15.3398
" />
<path d="M17.5216 15.3398
L17.4612 15.4002
" />
<path d="M17.4612 15.4002
L17.4007 15.3398
" />
<path d="M17.4007 15.3398
L17.4612 15.2793
" />
<path d="M17.4612 15.2793
L17.4612 15.4002
" />
<path d="M17.2193 14.1907
L17.3402 14.1302
" />
<path d="M17.3402 14.1302
L17.6426 14.1302
" />
<path d="M17.6426 14.1302
L17.7635 14.1907
" />
<path d="M17.7635 14.1907
L17.8240 14.3117
" />
<path d="M17.8240 14.3117
L17.8240 14.4326
" />
<path d="M17.8240 14.4326
L17.7635 14.5536
" />
<path d="M17.7635 14.5536
L17.7031 14.6140
" />
<path d="M17.7031 14.6140
L17.5821 14.6745
" />
<path d="M17.5821 14.6745
L17.5216 14.7350
" />
<path d="M17.5216 14.7350
L17.4612 14.8559
" />
<path d="M17.4612 14.8559
L17.4612 14.9164
" />
</g><text x="30.8264" y="15.4560"
textLength="12.3780" font-size="1.6933" lengthAdjust="spacingAndGlyphs"
text-anchor="middle" opacity="0">W25Q128JVP</text>
<g class="stroked-text"><desc>W25Q128JVP</desc>
<path d="M24.9300 14.1302
L25.2324 15.4002
" />
<path d="M25.2324 15.4002
L25.4743 14.4931
" />
<path d="M25.4743 14.4931
L25.7162 15.4002
" />
<path d="M25.7162 15.4002
L26.0186 14.1302
" />
<path d="M26.4419 14.2512
L26.5023 14.1907
" />
<path d="M26.5023 14.1907
L26.6233 14.1302
" />
<path d="M26.6233 14.1302
L26.9257 14.1302
" />
<path d="M26.9257 14.1302
L27.0466 14.1907
" />
<path d="M27.0466 14.1907
L27.1071 14.2512
" />
<path d="M27.1071 14.2512
L27.1676 14.3721
" />
<path d="M27.1676 14.3721
L27.1676 14.4931
" />
<path d="M27.1676 14.4931
L27.1071 14.6745
" />
<path d="M27.1071 14.6745
L26.3814 15.4002
" />
<path d="M26.3814 15.4002
L27.1676 15.4002
" />
<path d="M28.3166 14.1302
L27.7118 14.1302
" />
<path d="M27.7118 14.1302
L27.6514 14.7350
" />
<path d="M27.6514 14.7350
L27.7118 14.6745
" />
<path d="M27.7118 14.6745
L27.8328 14.6140
" />
<path d="M27.8328 14.6140
L28.1352 14.6140
" />
<path d="M28.1352 14.6140
L28.2561 14.6745
" />
<path d="M28.2561 14.6745
L28.3166 14.7350
" />
<path d="M28.3166 14.7350
L28.3771 14.8559
" />
<path d="M28.3771 14.8559
L28.3771 15.1583
" />
<path d="M28.3771 15.1583
L28.3166 15.2793
" />
<path d="M28.3166 15.2793
L28.2561 15.3398
" />
<path d="M28.2561 15.3398
L28.1352 15.4002
" />
<path d="M28.1352 15.4002
L27.8328 15.4002
" />
<path d="M27.8328 15.4002
L27.7118 15.3398
" />
<path d="M27.7118 15.3398
L27.6514 15.2793
" />
<path d="M29.7680 15.5212
L29.6470 15.4607
" />
<path d="M29.6470 15.4607
L29.5261 15.3398
" />
<path d="M29.5261 15.3398
L29.3447 15.1583
" />
<path d="M29.3447 15.1583
L29.2237 15.0978
" />
<path d="M29.2237 15.0978
L29.1028 15.0978
" />
<path d="M29.1632 15.4002
L29.0423 15.3398
" />
<path d="M29.0423 15.3398
L28.9213 15.2188
" />
<path d="M28.9213 15.2188
L28.8609 14.9769
" />
<path d="M28.8609 14.9769
L28.8609 14.5536
" />
<path d="M28.8609 14.5536
L28.9213 14.3117
" />
<path d="M28.9213 14.3117
L29.0423 14.1907
" />
<path d="M29.0423 14.1907
L29.1632 14.1302
" />
<path d="M29.1632 14.1302
L29.4051 14.1302
" />
<path d="M29.4051 14.1302
L29.5261 14.1907
" />
<path d="M29.5261 14.1907
L29.6470 14.3117
" />
<path d="M29.6470 14.3117
L29.7075 14.5536
" />
<path d="M29.7075 14.5536
L29.7075 14.9769
" />
<path d="M29.7075 14.9769
L29.6470 15.2188
" />
<path d="M29.6470 15.2188
L29.5261 15.3398
" />
<path d="M29.5261 15.3398
L29.4051 15.4002
" />
<path d="M29.4051 15.4002
L29.1632 15.4002
" />
<path d="M30.9171 15.4002
L30.1914 15.4002
" />
<path d="M30.5542 15.4002
L30.5542 14.1302
" />
<path d="M30.5542 14.1302
L30.4333 14.3117
" />
<path d="M30.4333 14.3117
L30.3123 14.4326
" />
<path d="M30.3123 14.4326
L30.1914 14.4931
" />
<path d="M31.4009 14.2512
L31.4613 14.1907
" />
<path d="M31.4613 14.1907
L31.5823 14.1302
" />
<path d="M31.5823 14.1302
L31.8847 14.1302
" />
<path d="M31.8847 14.1302
L32.0056 14.1907
" />
<path d="M32.0056 14.1907
L32.0661 14.2512
" />
<path d="M32.0661 14.2512
L32.1266 14.3721
" />
<path d="M32.1266 14.3721
L32.1266 14.4931
" />
<path d="M32.1266 14.4931
L32.0661 14.6745
" />
<path d="M32.0661 14.6745
L31.3404 15.4002
" />
<path d="M31.3404 15.4002
L32.1266 15.4002
" />
<path d="M32.8523 14.6745
L32.7313 14.6140
" />
<path d="M32.7313 14.6140
L32.6708 14.5536
" />
<path d="M32.6708 14.5536
L32.6104 14.4326
" />
<path d="M32.6104 14.4326
L32.6104 14.3721
" />
<path d="M32.6104 14.3721
L32.6708 14.2512
" />
<path d="M32.6708 14.2512
L32.7313 14.1907
" />
<path d="M32.7313 14.1907
L32.8523 14.1302
" />
<path d="M32.8523 14.1302
L33.0942 14.1302
" />
<path d="M33.0942 14.1302
L33.2151 14.1907
" />
<path d="M33.2151 14.1907
L33.2756 14.2512
" />
<path d="M33.2756 14.2512
L33.3361 14.3721
" />
<path d="M33.3361 14.3721
L33.3361 14.4326
" />
<path d="M33.3361 14.4326
L33.2756 14.5536
" />
<path d="M33.2756 14.5536
L33.2151 14.6140
" />
<path d="M33.2151 14.6140
L33.0942 14.6745
" />
<path d="M33.0942 14.6745
L32.8523 14.6745
" />
<path d="M32.8523 14.6745
L32.7313 14.7350
" />
<path d="M32.7313 14.7350
L32.6708 14.7955
" />
<path d="M32.6708 14.7955
L32.6104 14.9164
" />
<path d="M32.6104 14.9164
L32.6104 15.1583
" />
<path d="M32.6104 15.1583
L32.6708 15.2793
" />
<path d="M32.6708 15.2793
L32.7313 15.3398
" />
<path d="M32.7313 15.3398
L32.8523 15.4002
" />
<path d="M32.8523 15.4002
L33.0942 15.4002
" />
<path d="M33.0942 15.4002
L33.2151 15.3398
" />
<path d="M33.2151 15.3398
L33.2756 15.2793
" />
<path d="M33.2756 15.2793
L33.3361 15.1583
" />
<path d="M33.3361 15.1583
L33.3361 14.9164
" />
<path d="M33.3361 14.9164
L33.2756 14.7955
" />
<path d="M33.2756 14.7955
L33.2151 14.7350
" />
<path d="M33.2151 14.7350
L33.0942 14.6745
" />
<path d="M34.2432 14.1302
L34.2432 15.0374
" />
<path d="M34.2432 15.0374
L34.1827 15.2188
" />
<path d="M34.1827 15.2188
L34.0618 15.3398
" />
<path d="M34.0618 15.3398
L33.8803 15.4002
" />
<path d="M33.8803 15.4002
L33.7594 15.4002
" />
<path d="M34.6665 14.1302
L35.0898 15.4002
" />
<path d="M35.0898 15.4002
L35.5132 14.1302
" />
<path d="M35.9365 15.4002
L35.9365 14.1302
" />
<path d="M35.9365 14.1302
L36.4203 14.1302
" />
<path d="M36.4203 14.1302
L36.5413 14.1907
" />
<path d="M36.5413 14.1907
L36.6018 14.2512
" />
<path d="M36.6018 14.2512
L36.6622 14.3721
" />
<path d="M36.6622 14.3721
L36.6622 14.5536
" />
<path d="M36.6622 14.5536
L36.6018 14.6745
" />
<path d="M36.6018 14.6745
L36.5413 14.7350
" />
<path d="M36.5413 14.7350
L36.4203 14.7955
" />
<path d="M36.4203 14.7955
L35.9365 14.7955
" />
</g></g> 
</svg>
